<svg width="260" height="266" viewBox="0 0 260 266" fill="none" xmlns="http://www.w3.org/2000/svg">
<mask id="path-1-inside-1_341_551" fill="white">
<path fill-rule="evenodd" clip-rule="evenodd" d="M-301 0C-325.853 0 -346 20.1472 -346 45V192.952C-346 217.805 -325.832 237.952 -300.98 237.952H-289.639L-263 266L-236.361 237.952H214.979C239.832 237.952 260 217.805 260 192.952V45C260 20.1472 239.853 0 215 0H-301Z"/>
</mask>
<path fill-rule="evenodd" clip-rule="evenodd" d="M-301 0C-325.853 0 -346 20.1472 -346 45V192.952C-346 217.805 -325.832 237.952 -300.98 237.952H-289.639L-263 266L-236.361 237.952H214.979C239.832 237.952 260 217.805 260 192.952V45C260 20.1472 239.853 0 215 0H-301Z" fill="#191A23"/>
<path d="M-289.639 237.952L-288.914 237.264L-289.209 236.952H-289.639V237.952ZM-263 266L-263.725 266.689L-263 267.452L-262.275 266.689L-263 266ZM-236.361 237.952V236.952H-236.791L-237.086 237.264L-236.361 237.952ZM-345 45C-345 20.6995 -325.301 1 -301 1V-1C-326.405 -1 -347 19.595 -347 45H-345ZM-345 192.952V45H-347V192.952H-345ZM-300.98 236.952C-325.281 236.952 -345 217.252 -345 192.952H-347C-347 218.358 -326.384 238.952 -300.98 238.952V236.952ZM-289.639 236.952H-300.98V238.952H-289.639V236.952ZM-262.275 265.311L-288.914 237.264L-290.364 238.641L-263.725 266.689L-262.275 265.311ZM-237.086 237.264L-263.725 265.311L-262.275 266.689L-235.636 238.641L-237.086 237.264ZM214.979 236.952H-236.361V238.952H214.979V236.952ZM259 192.952C259 217.252 239.281 236.952 214.979 236.952V238.952C240.384 238.952 261 218.358 261 192.952H259ZM259 45V192.952H261V45H259ZM215 1C239.3 1 259 20.6995 259 45H261C261 19.5949 240.405 -1 215 -1V1ZM-301 1H215V-1H-301V1Z" fill="#B9FF66" mask="url(#path-1-inside-1_341_551)"/>
</svg>
